Patient4_TMGait_0pt6_02_left_17_EMG.mot
version=1
nRows=13
nColumns=33
inDegrees=no
endheader
time	1LAddLong	2LGlutMax	3LGlutMed	4LIliopsoas	5LSemiMemb	6LBicFemLong	7LRecFem	8LVastMed	9LVastLat	10LGasMed	11LTibAnt	12lTibPost	13LPeroneusLong	14LSol	15LExtDigLong	16LFlexDigLong	17RAddLong	18RGlutMax	19RGlutMed	20RIliopsoas	21RSemiMemb	22RBicFemLong	23RRecFem	24RVastMed	25RVastLat	26RGasMed	27RTibAnt	28RTibPost	29RPeroneusLong	30RSol	31RExtDigLong	32RFlexDigLong
21.73	-0.003662	-0.16724	-0.41534	-0.019836	-0.008698	0.13367	0.16205	0.005951	-0.011292	0.075531	0.069885	0.013123	0.04364	0.053558	-0.3122	-0.000916	-0.10483	0.12116	0.88501	-0.053864	0.47012	-0.31143	0.23483	-0.457	-0.76858	0.058899	0.11414	0.013428	0.11765	0.10696	-0.00412	0.014496
21.731	-0.008392	-0.24567	-0.4007	-0.000458	-0.001221	0.13565	0.1471	0.008087	-0.011444	0.045929	0.058594	0.01358	0.016479	0.10651	-0.44922	0.007019	-0.1265	0.016479	0.39932	-0.019684	0.53345	-0.037231	-0.030365	-0.52292	-0.81329	0.054474	0.24124	0.056915	0.077667	0.03006	-0.002594	0.006104
21.732	-0.007477	-0.26199	-0.38788	-0.007782	0.016785	0.046082	0.11917	0.000763	0.006256	0.018921	0.14633	0.007477	0.025177	0.040894	-0.2945	0.001526	-0.17059	0.084991	0.21729	-0.009918	0.19669	0.21805	-0.28778	-0.14999	-0.63019	0.0737	0.1976	0.003357	-0.11307	-0.1004	-0.001526	0.003052
21.733	0.00061	-0.22308	-0.44846	0.018158	0.010681	-0.011902	0.098877	0.01358	0.002747	0.015869	0.25299	0.009308	-0.004578	-0.013275	-0.38528	-0.009155	-0.18158	0.14496	0.078735	-0.031128	0.15625	0.42297	-0.38223	0.2243	-0.45502	0.042725	0.027008	-0.020599	-0.055237	0.000458	-0.005493	0.005341
21.734	0.005951	-0.31494	-0.4985	0.001526	-0.00824	-0.11826	0.078888	0	0.021515	0.013275	0.31784	0.007019	0.019989	-0.020294	-0.35187	0.000305	-0.097351	0.30975	0.34515	-0.086517	0.26901	0.48096	-0.26474	0.31342	-0.39597	-0.04364	-0.007324	-0.021057	0.11505	0.16266	-0.002899	0.00946
21.735	0.007935	-0.30868	-0.50491	-0.02121	-0.029907	-0.2095	0.068512	0.005341	0.012207	0.008698	0.068817	0.007324	0.000153	-0.036774	0.10971	-0.002441	-0.12695	0.38757	0.36682	-0.22995	0.56595	0.36316	-0.036926	0.46448	-0.2446	-0.058441	0.030212	-0.017242	0.42847	0.11017	-0.00412	0.003052
21.736	0.014954	-0.31708	-0.45013	-0.028534	-0.028229	-0.24262	0.056305	-0.002441	0.023041	-0.046387	-0.1329	0.005646	0.047607	-0.040588	0.094757	-0.002747	-0.04837	0.39841	0.12573	-0.11444	0.92728	0.080719	0.011597	0.34149	-0.20386	-0.015259	0.090485	0.026703	0.24048	-0.00061	-0.002594	0.00412
21.737	0.01709	-0.34515	-0.49362	-0.000153	-0.000305	-0.25803	0.075378	-0.00412	0.023193	-0.10956	-0.35492	-0.000458	0.10391	0.011749	0.1712	0.006409	-0.00412	0.43457	-0.067596	0.099182	0.29221	-0.097046	0.049438	0.10986	-0.03891	0.004883	0.159	0.027313	-0.14114	-0.094147	-0.005493	0.007019
21.738	0.009918	-0.34882	-0.47089	0.033875	0.00885	-0.27237	0.11169	0	-0.001373	-0.10956	-0.31113	0.00351	-0.050964	0.01236	0.27939	0.011902	-0.028381	0.33188	0.29083	0.24994	-0.26443	-0.029297	-0.14206	-0.16953	0.005493	-0.004272	0.13794	-0.024414	-0.26611	-0.033417	-0.004272	0.019226
21.739	0.018921	-0.36118	-0.49866	0.02655	0.073395	-0.31204	0.097961	-0.002289	-0.009155	-0.10574	-0.13901	0.011749	-0.093536	-0.011597	0.55206	0.011597	-0.072937	0.26001	0.9967	0.30594	-0.55206	0.16068	-0.37811	-0.25879	0.048981	-0.037384	0.16876	-0.032196	-0.18021	0.03891	-0.003967	0.014648
21.74	0.011902	-0.36865	-0.46204	0.018921	0.10544	-0.16937	0.14465	0.002899	-0.010529	-0.099487	-0.11017	0.005341	-0.061035	-0.057983	0.20401	0.001831	-0.10941	0.13443	0.70175	0.22858	-0.41672	0.41916	-0.2623	0.031433	-0.078888	-0.020294	0.14832	-0.036774	-0.079803	0.034637	-0.002289	0.016022
21.741	-0.005646	-0.31555	-0.38986	0.002594	0.053406	0.14633	0.1532	0.009155	-0.037842	-0.048065	-0.081329	0.008392	-0.010986	-0.13565	-0.55237	-0.000458	-0.13702	-0.13397	0.29221	0.05249	0.77591	0.4686	-0.037842	0.75241	0.32272	0.011139	0.04303	-0.041199	-0.054016	0.043793	-0.001984	0.006104
21.742	-0.003662	-0.32089	-0.37384	-0.016174	-0.005493	0.29343	0.15686	0.014801	-0.041351	-0.027161	-0.039063	0.006409	0.055237	-0.20584	-0.31693	-0.002289	-0.14252	-0.31632	0.12756	-0.027924	2.191	0.51209	0.29526	0.96634	0.36468	0.011292	-0.069275	0.023193	0.014801	-0.04776	-0.003052	0.007629
